<svg xmlns="http://www.w3.org/2000/svg" viewBox="0 0 128 128" role="img" aria-label="Veda file icon">
  <defs>
    <linearGradient id="g" x1="0" x2="1" y1="0" y2="1">
      <stop offset="0" stop-color="#7C3AED"/>
      <stop offset="1" stop-color="#2563EB"/>
    </linearGradient>
  </defs>
  <path fill="url(#g)" d="M24 8h52l28 28v84a8 8 0 0 1-8 8H24a8 8 0 0 1-8-8V16a8 8 0 0 1 8-8z"/>
  <path fill="#ffffff" fill-opacity="0.18" d="M76 8v20a8 8 0 0 0 8 8h20z"/>
  <path fill="#fff" d="M38 88l13-48h9l13 48h-9l-2-9H49l-2 9h-9zm13-17h11l-5-23h-1l-5 23z"/>
</svg>

